<svg xmlns="http://www.w3.org/2000/svg" width="148" height="16" fill="none"><path fill="#1A1A1A" d="M11.482 13.282c0 .103-.066.238-.197.405-.119.154-.29.308-.514.462-.21.154-.46.289-.75.404a2.28 2.28 0 0 1-.888.174c-.487 0-.915-.148-1.283-.443-.369-.308-.704-.726-1.007-1.252-.29-.527-.56-1.15-.81-1.868a89.06 89.06 0 0 1-.77-2.37l-.75.482-.375 4.97a.48.48 0 0 1-.079.23c-.04.039-.118.058-.237.058H2.736c-.75 0-1.283-.141-1.599-.424-.302-.295-.454-.725-.454-1.29 0-.18.007-.45.02-.809.026-.372.06-.802.099-1.29.04-.501.079-1.047.118-1.638.053-.59.106-1.194.158-1.81.092-1.233.165-2.209.217-2.928a66.122 66.122 0 0 0 .198-2.619c.013-.205.02-.398.02-.578 0-.192.105-.289.315-.289h1.086c.421 0 .757.045 1.007.135.263.077.467.193.612.347.145.154.243.346.296.578.053.218.08.475.08.77 0 .295-.02.777-.06 1.445a56.412 56.412 0 0 1-.138 2.214c.447-.539.98-1.207 1.599-2.003C6.942 3.55 7.705 2.567 8.6 1.4a4.488 4.488 0 0 1 .395-.443c.092-.077.184-.142.276-.193a.575.575 0 0 1 .296-.096c.171 0 .369.09.592.27.224.166.435.378.632.635.198.244.362.5.494.77.145.257.217.475.217.655 0 .373-.342.931-1.027 1.676-.684.732-1.665 1.58-2.941 2.542.224.373.48.777.77 1.214a58 58 0 0 1 .868 1.31c.29.436.573.866.85 1.29.276.41.52.783.73 1.117.223.32.401.584.533.79.131.205.197.32.197.346ZM17.872 14.534c-.737 0-1.264-.141-1.58-.424-.315-.282-.473-.686-.473-1.213 0-.257.02-.693.059-1.31.04-.629.092-1.341.158-2.138.066-.796.131-1.637.197-2.523.066-.886.132-1.72.198-2.504.066-.783.118-1.47.158-2.06.04-.591.059-.996.059-1.214 0-.192.105-.289.316-.289h1.086c.802 0 1.342.167 1.618.501.277.334.415.828.415 1.483 0 .064-.013.27-.04.616-.013.347-.039.784-.078 1.31-.04.527-.086 1.117-.139 1.772-.04.642-.085 1.303-.138 1.984-.04.68-.085 1.348-.138 2.003-.04.642-.079 1.226-.119 1.753l-.098 1.329c-.026.346-.046.558-.06.635a.48.48 0 0 1-.078.231c-.04.039-.119.058-.237.058h-1.086ZM24.16 14.534c-.144 0-.216-.07-.216-.212l.059-1.04c.013-.115.033-.257.059-.424a.908.908 0 0 1 .178-.443c.224-.397.493-.828.81-1.29.315-.462.697-1.027 1.144-1.695a108.687 108.687 0 0 0 3.652-5.874h-4.5c-.106 0-.172-.02-.198-.058a.76.76 0 0 1-.02-.212l.06-1.078a5.35 5.35 0 0 1 .059-.482c.039-.167.105-.315.197-.443.105-.128.25-.231.434-.308.185-.077.428-.116.73-.116h7.542c.08 0 .151.02.217.058.066.039.099.11.099.212l-.079 1.04c-.026.334-.105.61-.237.828l-.572.925c-.343.539-.777 1.226-1.303 2.06-.527.835-1.119 1.766-1.777 2.793a245.23 245.23 0 0 1-1.954 3.063h5.014c.079 0 .151.019.217.058.066.038.099.109.099.211l-.08 1.137c-.025.385-.137.7-.335.944-.184.23-.572.346-1.165.346h-8.133ZM49.351 10.853c-.04.232-.099.491-.178.777-.08.278-.206.564-.378.858a3.642 3.642 0 0 1-.656.834c-.278.27-.636.514-1.073.73-.437.21-.967.38-1.59.51-.609.124-1.337.186-2.185.186-.861 0-1.596-.07-2.206-.208-.61-.147-1.106-.344-1.49-.592-.384-.255-.662-.548-.834-.88A2.284 2.284 0 0 1 38.502 12c0-.17.013-.398.04-.684.026-.294.06-.61.1-.95.052-.34.105-.692.158-1.055.053-.371.1-.723.14-1.055.052-.333.099-.63.138-.893.04-.27.067-.475.08-.614.013-.147.046-.24.1-.278.052-.047.132-.07.238-.07h1.093c.808 0 1.35.1 1.629.301.278.201.417.499.417.893 0 .023-.013.127-.04.313-.013.178-.04.398-.079.66-.026.263-.06.55-.1.858-.026.31-.059.603-.099.882-.026.278-.053.521-.08.73-.013.208-.02.348-.02.417 0 .131.008.282.02.452.027.17.08.332.16.487.093.155.232.286.417.394.199.1.477.15.835.15.45 0 .814-.088 1.093-.266.29-.178.51-.39.655-.637.16-.248.265-.499.318-.754.066-.255.113-.463.14-.626.052-.394.105-.8.158-1.217.066-.417.12-.807.16-1.17.052-.364.092-.68.118-.951.027-.27.04-.456.04-.557 0-.154.02-.25.06-.29.04-.046.126-.069.258-.069h1.093c.45 0 .801.023 1.053.07.265.046.464.108.596.185.133.077.212.166.239.267.04.1.06.204.06.313 0 .1-.014.29-.04.568a36.163 36.163 0 0 1-.16 2.051 13 13 0 0 1-.139.997ZM63.05 14.534c-.54 0-.941-.077-1.204-.231a1.43 1.43 0 0 1-.573-.578c-.684-1.374-1.329-2.69-1.934-3.948a468.202 468.202 0 0 0-1.817-3.814c.014 1.387.033 2.767.06 4.141l.078 4.141c0 .193-.105.29-.315.29h-1.086c-.75 0-1.283-.142-1.6-.425-.302-.295-.453-.725-.453-1.29 0-.154.006-.41.02-.77.026-.373.059-.81.098-1.31.04-.5.08-1.047.119-1.637l.157-1.83.198-2.427c.053-.642.092-1.181.118-1.618.04-.45.066-.828.08-1.136.012-.321.026-.636.039-.944 0-.192.105-.289.316-.289h1.58c.433 0 .789.052 1.065.154.276.09.5.219.671.386.185.167.33.36.435.577.105.206.204.424.296.655.316.796.592 1.483.829 2.061a189.368 189.368 0 0 1 1.125 2.658c.145.321.277.616.395.886.119.27.237.533.355.79.119.244.244.513.376.809 0-.758-.007-1.535-.02-2.33 0-.81-.007-1.593-.02-2.35 0-.771-.007-1.51-.02-2.216V1.033c0-.116.112-.174.336-.174h1.086c.434 0 .776.045 1.026.135.263.077.468.2.612.366.145.154.237.347.277.578.052.231.079.494.079.79 0 .32-.02.815-.06 1.483-.039.654-.085 1.393-.138 2.215-.052.821-.112 1.675-.177 2.561-.066.873-.132 1.682-.198 2.427-.052.745-.105 1.38-.158 1.907-.04.513-.066.815-.079.905 0 .103-.04.18-.118.231a.373.373 0 0 1-.237.077H63.05ZM76.657.86c.329 0 .598.064.809.192.224.115.408.276.553.481.145.193.263.418.355.675.092.256.171.52.237.79.526 2.08.96 3.793 1.303 5.142.342 1.348.612 2.44.81 3.274.197.822.335 1.432.414 1.83.079.398.118.674.118.828 0 .18-.046.302-.138.366-.079.064-.21.096-.395.096h-1.006c-.566 0-1.02-.064-1.363-.192a1.79 1.79 0 0 1-.77-.598 2.693 2.693 0 0 1-.375-.924c-.079-.372-.144-.79-.197-1.252h-3.435l-.652 2.658c-.065.205-.217.308-.454.308h-1.046c-.21 0-.428-.02-.651-.058a2.315 2.315 0 0 1-.612-.23 1.548 1.548 0 0 1-.435-.386 1.005 1.005 0 0 1-.178-.597c0-.283.093-.745.277-1.387.184-.642.415-1.367.69-2.176.29-.822.606-1.676.948-2.562.356-.899.698-1.746 1.027-2.542.33-.796.625-1.496.888-2.1.277-.603.487-1.027.632-1.27.106-.18.198-.283.277-.309.092-.038.256-.058.493-.058h1.876Zm-2.37 7.915h2.27l-.828-5.084-1.441 5.084Z"/><ellipse cx="41.134" cy="3.62" fill="#E4D124" rx="1.755" ry="1.712"/><ellipse cx="47.934" cy="3.62" fill="#E4D124" rx="1.755" ry="1.712"/><path fill="#1A1A1A" d="M92.743 14.889c-.747 0-1.362-.05-1.843-.152-.481-.089-.868-.222-1.159-.399a1.563 1.563 0 0 1-.589-.703 2.893 2.893 0 0 1-.152-.988c0-.114.006-.272.019-.475l.057-.893.095-1.463.19-2.28c.089-1.127.158-2.02.209-2.679.05-.659.089-1.165.114-1.52.025-.367.038-.62.038-.76.013-.152.019-.279.019-.38v-.494c.013-.127.025-.222.038-.285.025-.076.057-.127.095-.152a.341.341 0 0 1 .209-.057c.747-.05 1.38-.089 1.9-.114.532-.025.994-.038 1.387-.038.963 0 1.786.082 2.47.247.697.152 1.26.374 1.691.665.43.291.747.652.95 1.083.203.43.304.918.304 1.463 0 .304-.032.62-.095.95-.063.317-.171.62-.323.912a2.617 2.617 0 0 1-.627.779c-.253.215-.576.374-.969.475.735.228 1.254.608 1.558 1.14.304.52.456 1.14.456 1.862 0 .583-.095 1.134-.285 1.653-.19.507-.52.956-.988 1.349-.469.38-1.09.684-1.862.912-.773.228-1.742.342-2.907.342Zm1.083-5.89c-.14 0-.31.013-.513.038a5.63 5.63 0 0 0-.627.076l-.209 3.097c.456.14.868.209 1.235.209.393 0 .71-.057.95-.171.24-.114.424-.253.551-.418.14-.177.228-.367.266-.57.05-.215.076-.412.076-.589 0-.469-.133-.861-.399-1.178-.253-.33-.697-.494-1.33-.494Zm-.798-5.225c-.025.33-.05.716-.076 1.159-.013.443-.038.925-.076 1.444.405.101.766.152 1.083.152.38 0 .684-.044.912-.133.228-.089.405-.203.532-.342a.944.944 0 0 0 .266-.456c.05-.165.076-.323.076-.475 0-.393-.133-.728-.399-1.007-.253-.291-.697-.437-1.33-.437-.14 0-.298.013-.475.038a7.934 7.934 0 0 0-.513.057ZM104.855 14.699c-.709 0-1.216-.14-1.52-.418-.304-.279-.456-.678-.456-1.197 0-.253.019-.684.057-1.292.038-.62.089-1.324.152-2.109.063-.785.127-1.615.19-2.489.063-.874.127-1.697.19-2.47.063-.773.114-1.45.152-2.033.038-.583.057-.982.057-1.197 0-.19.101-.285.304-.285h1.045c.709 0 1.197.14 1.463.418.279.266.418.665.418 1.197a.69.69 0 0 1-.019.171v.171l-.627 8.873h3.42c.076 0 .146.025.209.076.063.038.095.101.095.19l-.076 1.121c-.025.38-.133.69-.323.931-.177.228-.551.342-1.121.342h-3.61ZM120.237 1c.924 0 1.716.133 2.375.399a3.835 3.835 0 0 1 1.615 1.14c.418.494.722 1.102.912 1.824.19.71.285 1.52.285 2.432 0 .507-.038 1.058-.114 1.653a9.418 9.418 0 0 1-.38 1.805 8.344 8.344 0 0 1-.741 1.729 5.525 5.525 0 0 1-1.235 1.482c-.494.43-1.09.779-1.786 1.045-.697.253-1.52.38-2.47.38-1.052 0-1.926-.158-2.622-.475-.684-.317-1.235-.741-1.653-1.273a5.211 5.211 0 0 1-.874-1.919 10.735 10.735 0 0 1-.247-2.356c0-.988.114-1.95.342-2.888a7.072 7.072 0 0 1 1.14-2.527c.544-.735 1.26-1.324 2.147-1.767.886-.456 1.988-.684 3.306-.684Zm-.399 2.945c-.444 0-.83.082-1.159.247a2.472 2.472 0 0 0-.817.627 3.672 3.672 0 0 0-.532.893c-.127.33-.228.671-.304 1.026a7.13 7.13 0 0 0-.152 1.007c-.026.317-.038.602-.038.855 0 1.153.19 1.995.57 2.527.392.532.943.798 1.653.798.582 0 1.057-.184 1.425-.551.367-.38.652-.83.855-1.349a6.798 6.798 0 0 0 .437-1.634c.076-.57.114-1.051.114-1.444 0-.925-.159-1.653-.475-2.185-.317-.545-.843-.817-1.577-.817ZM137.83 14.699c-.659 0-1.134-.133-1.425-.399a1.535 1.535 0 0 1-.456-1.026c-.14.43-.437.81-.893 1.14-.444.317-1.09.475-1.938.475-.494 0-.976-.095-1.444-.285-.469-.203-.887-.532-1.254-.988-.368-.456-.665-1.064-.893-1.824-.216-.76-.323-1.704-.323-2.831 0-.43.025-.925.076-1.482.05-.57.152-1.146.304-1.729a8.69 8.69 0 0 1 .684-1.729 5.688 5.688 0 0 1 1.178-1.52c.494-.443 1.095-.798 1.805-1.064.709-.279 1.558-.418 2.546-.418.646 0 1.222.07 1.729.209.519.14.956.336 1.311.589.367.253.646.564.836.931.202.367.304.779.304 1.235 0 .735-.241 1.292-.722 1.672-.482.367-1.159.551-2.033.551-.279 0-.45-.019-.513-.057-.051-.05-.083-.146-.095-.285a11.258 11.258 0 0 1-.057-.684c0-.228-.032-.437-.095-.627a.86.86 0 0 0-.285-.456c-.14-.114-.361-.171-.665-.171-.621 0-1.115.177-1.482.532a3.445 3.445 0 0 0-.836 1.292 6.046 6.046 0 0 0-.361 1.577 14.49 14.49 0 0 0-.076 1.349c0 .608.038 1.121.114 1.539.076.405.183.741.323 1.007.152.253.329.437.532.551.202.101.437.152.703.152.481 0 .886-.101 1.216-.304.329-.203.525-.57.589-1.102l.114-1.064c.038-.367.088-.665.152-.893.063-.24.215-.361.456-.361h1.045c.316 0 .57.038.76.114a.794.794 0 0 1 .456.342c.114.152.19.355.228.608.038.253.057.564.057.931 0 .253-.013.589-.038 1.007-.013.418-.038.842-.076 1.273-.026.43-.057.83-.095 1.197-.038.355-.07.602-.095.741-.026.114-.057.19-.095.228-.038.038-.114.057-.228.057h-1.045ZM145.233 11.317c.532 0 .912.133 1.14.399.228.253.342.614.342 1.083 0 .19-.025.412-.076.665-.051.24-.146.469-.285.684-.127.203-.31.38-.551.532-.241.14-.557.209-.95.209-.583 0-.975-.146-1.178-.437-.203-.304-.304-.678-.304-1.121 0-.253.032-.5.095-.741.063-.24.165-.456.304-.646.139-.19.329-.342.57-.456.241-.114.538-.171.893-.171Z"/></svg>