<svg width="82" height="16" fill="none" xmlns="http://www.w3.org/2000/svg"><path d="M11.482 13.282c0 .103-.066.238-.197.405-.119.154-.29.308-.514.462-.21.154-.46.289-.75.404a2.28 2.28 0 0 1-.888.174c-.487 0-.915-.148-1.283-.443-.369-.308-.704-.726-1.007-1.252-.29-.527-.56-1.15-.81-1.868a89.048 89.048 0 0 1-.77-2.37l-.75.482-.375 4.97a.48.48 0 0 1-.079.23c-.04.039-.118.058-.237.058H2.736c-.75 0-1.283-.141-1.599-.424-.302-.295-.454-.725-.454-1.29 0-.18.007-.45.02-.809.026-.372.06-.802.099-1.29.04-.501.079-1.047.118-1.638.053-.59.106-1.194.158-1.81.092-1.233.165-2.209.217-2.928a66.126 66.126 0 0 0 .198-2.619c.013-.205.02-.398.02-.578 0-.192.105-.289.315-.289h1.086c.421 0 .757.045 1.007.135.263.077.467.193.612.347.145.154.243.346.296.578.053.218.08.475.08.77 0 .295-.02.777-.06 1.445a56.412 56.412 0 0 1-.138 2.214c.447-.539.98-1.207 1.599-2.003C6.942 3.55 7.705 2.567 8.6 1.4a4.487 4.487 0 0 1 .395-.443c.092-.077.184-.142.276-.193a.575.575 0 0 1 .296-.096c.171 0 .369.09.592.27.224.166.435.378.632.635.198.244.362.5.494.77.145.257.217.475.217.655 0 .373-.342.931-1.027 1.676-.684.732-1.665 1.58-2.941 2.542.224.373.48.777.77 1.214a58 58 0 0 1 .868 1.31c.29.436.573.866.85 1.29.276.41.52.783.73 1.117.223.32.401.584.533.79.131.205.197.32.197.346ZM17.872 14.534c-.737 0-1.264-.141-1.58-.424-.315-.282-.473-.686-.473-1.213 0-.257.02-.693.059-1.31.04-.629.092-1.341.158-2.138.066-.796.131-1.637.197-2.523.066-.886.132-1.72.198-2.504.066-.783.118-1.47.158-2.06.04-.591.059-.995.059-1.214 0-.192.105-.289.316-.289h1.086c.802 0 1.342.167 1.618.501.277.334.415.828.415 1.483 0 .064-.013.27-.04.616a36.8 36.8 0 0 1-.078 1.31c-.04.527-.086 1.117-.139 1.772-.04.642-.085 1.303-.138 1.984a90.56 90.56 0 0 1-.138 2.003c-.04.642-.079 1.226-.119 1.753l-.098 1.329c-.026.346-.046.558-.06.635a.48.48 0 0 1-.078.231c-.04.039-.119.058-.237.058h-1.086ZM24.16 14.534c-.144 0-.216-.07-.216-.212l.059-1.04c.013-.115.033-.257.059-.424a.908.908 0 0 1 .178-.443c.224-.397.493-.828.81-1.29.315-.462.697-1.027 1.144-1.695.448-.668.968-1.47 1.56-2.407a99.531 99.531 0 0 0 2.092-3.467h-4.5c-.106 0-.172-.02-.198-.058a.76.76 0 0 1-.02-.212l.06-1.078a5.35 5.35 0 0 1 .059-.482c.039-.167.105-.315.197-.443.105-.128.25-.231.434-.308.185-.077.428-.116.73-.116h7.542c.08 0 .151.02.217.058.066.039.099.11.099.212l-.079 1.04c-.026.334-.105.61-.237.828l-.572.925c-.343.539-.777 1.226-1.303 2.06-.527.835-1.119 1.766-1.777 2.793a245.23 245.23 0 0 1-1.954 3.063h5.014c.079 0 .151.019.217.058.066.038.099.109.099.211l-.08 1.137c-.025.385-.137.7-.335.944-.184.23-.572.346-1.165.346h-8.133ZM49.351 10.853c-.04.232-.099.491-.178.777-.08.278-.206.564-.378.858a3.642 3.642 0 0 1-.656.834c-.278.27-.636.514-1.073.73-.437.21-.967.38-1.59.51-.609.124-1.337.186-2.185.186-.861 0-1.596-.07-2.206-.208-.61-.147-1.106-.344-1.49-.592-.384-.255-.662-.548-.834-.88A2.284 2.284 0 0 1 38.502 12c0-.17.013-.398.04-.684.026-.294.06-.61.1-.95.052-.34.105-.692.158-1.055.053-.371.1-.723.14-1.055.052-.333.099-.63.138-.893.04-.27.067-.475.08-.614.013-.147.046-.24.1-.278.052-.047.132-.07.238-.07h1.093c.808 0 1.35.1 1.629.301.278.201.417.499.417.893 0 .023-.013.127-.04.313-.013.178-.04.398-.079.66-.026.263-.06.55-.1.858-.026.31-.059.603-.099.882-.026.278-.053.521-.08.73-.013.208-.02.348-.02.417 0 .131.008.282.02.452.027.17.08.332.16.487.093.155.232.286.417.394.199.1.477.15.835.15.45 0 .814-.088 1.093-.266.29-.178.51-.39.655-.637.16-.248.265-.499.318-.754.066-.255.113-.463.14-.626.052-.394.105-.8.158-1.217.066-.417.12-.807.16-1.17.052-.364.092-.68.118-.951.027-.27.04-.456.04-.557 0-.154.02-.25.06-.29.04-.046.126-.069.258-.069h1.093c.45 0 .801.023 1.053.07.265.046.464.108.596.185.133.077.212.166.239.267.04.1.06.204.06.313 0 .1-.014.29-.04.568a36.163 36.163 0 0 1-.16 2.051 13 13 0 0 1-.139.997ZM63.05 14.534c-.54 0-.941-.077-1.204-.231a1.43 1.43 0 0 1-.573-.578c-.684-1.374-1.329-2.69-1.934-3.948a468.36 468.36 0 0 0-1.817-3.814c.014 1.387.033 2.767.06 4.141l.078 4.141c0 .193-.105.29-.315.29h-1.086c-.75 0-1.283-.142-1.6-.425-.302-.295-.453-.725-.453-1.29 0-.154.006-.41.02-.77.026-.373.059-.81.098-1.31.04-.5.08-1.047.119-1.637l.157-1.83.198-2.427c.053-.642.092-1.181.118-1.618.04-.45.066-.828.08-1.136.012-.321.026-.636.039-.944 0-.192.105-.289.316-.289h1.58c.433 0 .789.052 1.065.154.276.09.5.219.671.386.185.167.33.36.435.577.105.206.204.424.296.655.316.796.592 1.483.829 2.061a189.2 189.2 0 0 1 1.125 2.658c.145.321.277.616.395.886.119.27.237.533.355.79.119.244.244.513.376.809 0-.758-.007-1.535-.02-2.33 0-.81-.007-1.593-.02-2.35 0-.771-.007-1.51-.02-2.216V1.033c0-.116.112-.174.336-.174h1.086c.434 0 .776.045 1.026.135.263.077.468.2.612.366.145.154.237.347.277.578.052.231.079.494.079.79 0 .32-.02.815-.06 1.483-.039.654-.085 1.393-.138 2.215a254.71 254.71 0 0 1-.177 2.561 189.48 189.48 0 0 1-.198 2.427c-.052.745-.105 1.38-.158 1.907-.04.513-.066.815-.079.905 0 .103-.04.18-.118.231a.373.373 0 0 1-.237.077H63.05ZM76.657.86c.329 0 .598.064.809.192.224.115.408.276.553.481.145.193.263.418.355.675.092.256.171.52.237.79.526 2.08.96 3.794 1.303 5.142.342 1.348.612 2.44.81 3.274.197.822.335 1.432.414 1.83.079.398.118.674.118.828 0 .18-.046.302-.138.366-.079.064-.21.096-.395.096h-1.006c-.566 0-1.02-.064-1.363-.192a1.79 1.79 0 0 1-.77-.598 2.693 2.693 0 0 1-.375-.924c-.079-.372-.144-.79-.197-1.252h-3.435l-.652 2.658c-.065.205-.217.308-.454.308h-1.046c-.21 0-.428-.02-.651-.058a2.315 2.315 0 0 1-.612-.23 1.548 1.548 0 0 1-.435-.386 1.005 1.005 0 0 1-.178-.597c0-.283.093-.745.277-1.387.184-.642.415-1.367.69-2.176.29-.822.606-1.676.948-2.562.356-.899.698-1.746 1.027-2.542.33-.796.625-1.496.888-2.1.277-.603.487-1.027.632-1.27.106-.18.198-.283.277-.309.092-.038.256-.058.493-.058h1.876Zm-2.37 7.915h2.27l-.828-5.084-1.441 5.084Z" fill="#111"/><ellipse cx="41.134" cy="3.62" rx="1.755" ry="1.712" fill="#E4D124"/><ellipse cx="47.934" cy="3.62" rx="1.755" ry="1.712" fill="#E4D124"/></svg>