<svg width="16" height="16" fill="none" xmlns="http://www.w3.org/2000/svg"><path d="M2 5.467v5.067c0 .746 0 1.12.145 1.405.128.25.332.455.583.582.285.146.658.146 1.403.146h7.738c.745 0 1.118 0 1.403-.146.25-.127.455-.332.583-.582.145-.285.145-.658.145-1.403V5.465c0-.746 0-1.119-.145-1.404a1.334 1.334 0 0 0-.583-.582c-.286-.146-.659-.146-1.405-.146H4.133c-.746 0-1.12 0-1.405.146-.251.127-.455.331-.583.582C2 4.346 2 4.721 2 5.467Z" fill="#FBF4ED"/><path d="m2.667 4 4.071 3.075.002.001c.452.332.678.497.926.561.219.057.449.057.668 0 .248-.064.475-.23.928-.562 0 0 2.611-2.004 4.071-3.075M2 10.534V5.466c0-.747 0-1.12.145-1.406.128-.25.332-.455.583-.582.285-.146.659-.146 1.405-.146h7.734c.746 0 1.12 0 1.405.146.25.127.455.331.583.582.145.285.145.658.145 1.404v5.07c0 .746 0 1.119-.145 1.404-.128.25-.332.455-.583.582-.285.146-.658.146-1.403.146H4.13c-.745 0-1.118 0-1.403-.146a1.334 1.334 0 0 1-.583-.582C2 11.653 2 11.28 2 10.534Z" stroke="#1A1A1A" stroke-linecap="round" stroke-linejoin="round"/></svg>