<svg width="40" height="40" viewBox="0 0 40 40" fill="none" xmlns="http://www.w3.org/2000/svg">
<path d="M16.9823 16.0955V14.5962C16.426 14.5226 15.8656 14.4845 15.3045 14.4822C8.44164 14.4822 2.85715 19.7085 2.85715 26.1324C2.85715 30.0724 4.9618 33.5613 8.17124 35.67C6.0222 33.5189 4.8266 30.6838 4.82862 27.7387C4.82862 21.4065 10.2537 16.2428 16.9823 16.0955Z" fill="#00F2EA"/>
<path d="M17.3122 32.6433C20.214 32.6433 22.5799 30.35 22.6879 27.4906L22.698 1.97246H27.3896C27.2891 1.43987 27.2381 0.899129 27.2372 0.357147L20.8304 0.357147L20.8193 25.8763C20.7124 28.7336 18.3444 31.027 15.4437 31.027C14.5734 31.027 13.7162 30.8158 12.9455 30.4115C13.4449 31.1025 14.1011 31.665 14.8603 32.053C15.6194 32.441 16.4597 32.6433 17.3122 32.6433ZM36.1512 10.6342V9.21566C34.4289 9.21758 32.743 8.71953 31.2982 7.78195C32.5663 9.23128 34.268 10.2318 36.1512 10.6342Z" fill="#00F2EA"/>
<path d="M31.1075 8.14422C29.6987 6.55263 28.9207 4.50066 28.9202 2.37509H27.208C27.432 3.55116 27.8934 4.66924 28.5638 5.66113C29.2343 6.65301 30.0998 7.49789 31.1075 8.14422ZM15.2924 20.6016C12.3261 20.6057 9.92278 22.9837 9.91975 25.9188C9.92285 26.8917 10.193 27.8452 10.7008 28.6751C11.2085 29.5051 11.9344 30.1797 12.7993 30.6255C12.1393 29.7263 11.7831 28.6403 11.7823 27.525C11.7853 24.589 14.1886 22.2099 17.1549 22.2069C17.7098 22.2069 18.2395 22.2977 18.7409 22.453V15.9958C18.2154 15.9219 17.6855 15.8835 17.1549 15.8808C17.0621 15.8808 16.9702 15.8868 16.8784 15.8879V20.8478C16.3652 20.6862 15.8304 20.6032 15.2924 20.6016Z" fill="#FF004F"/>
<path d="M35.2977 11.4556V16.3832C32.1105 16.388 29.0016 15.3964 26.4059 13.5471V26.4283C26.4059 32.8623 21.1291 38.0967 14.6436 38.0967C12.1364 38.0967 9.8118 37.3117 7.90187 35.9809C9.00447 37.158 10.3371 38.0961 11.8172 38.7368C13.2973 39.3776 14.8933 39.7075 16.5061 39.7059C22.9926 39.7059 28.2694 34.4716 28.2694 28.0385V15.1564C30.8653 17.0053 33.9742 17.9965 37.1612 17.9915V11.6523C36.5348 11.6521 35.9103 11.5862 35.2977 11.4556Z" fill="#FF004F"/>
<path d="M27.0506 26.0045V13.1022C29.7218 14.9591 32.8989 15.9509 36.1522 15.9433V11.0096C34.2392 10.6137 32.5028 9.6168 31.1963 8.1644C29.1058 6.84571 27.663 4.75418 27.2049 2.37509H22.4155L22.4054 27.8156C22.2944 30.6648 19.878 32.9511 16.9167 32.9511C15.1471 32.9491 13.4884 32.1217 12.4572 30.7274C10.6472 29.8062 9.51211 27.9871 9.5111 26.0035C9.51413 23.0574 11.9729 20.6712 15.0098 20.6672C15.5748 20.6672 16.1177 20.758 16.6322 20.9144V15.9373C10.1235 16.0856 4.87502 21.2645 4.87502 27.6148C4.87502 30.687 6.10492 33.4828 8.10867 35.5703C10.1434 36.9549 12.5487 37.693 15.0098 37.6881C21.6487 37.6881 27.0506 32.4466 27.0506 26.0045Z" fill="black"/>
</svg>
