<svg width="40" height="40" viewBox="0 0 40 40" fill="none" xmlns="http://www.w3.org/2000/svg">
<g clip-path="url(#clip0_150_758)">
<path d="M38.6 10.8142C38.1526 9.14797 36.839 7.83857 35.1675 7.39255C32.1412 6.58334 19.9999 6.58334 19.9999 6.58334C19.9999 6.58334 7.85884 6.58334 4.83234 7.39255C3.16091 7.83857 1.8474 9.14797 1.39998 10.8142C0.588227 13.8312 0.588226 20.1296 0.588226 20.1296C0.588226 20.1296 0.588227 26.4281 1.39998 29.4452C1.8474 31.1114 3.16091 32.4207 4.83234 32.8667C7.85884 33.6759 19.9999 33.6759 19.9999 33.6759C19.9999 33.6759 32.1412 33.6759 35.1675 32.8667C36.839 32.4207 38.1526 31.1114 38.6 29.4452C39.4118 26.4281 39.4118 20.1296 39.4118 20.1296C39.4118 20.1296 39.4085 13.8312 38.6 10.8142Z" fill="#FF0000"/>
<path d="M16.114 25.8338L26.2002 20.0595L16.114 14.2851V25.8338Z" fill="white"/>
</g>
<defs>
<clipPath id="clip0_150_758">
<rect width="40" height="28" fill="white" transform="translate(0 6)"/>
</clipPath>
</defs>
</svg>
